<svg xmlns="http://www.w3.org/2000/svg" viewBox="0 0 150 129.69"><g id="Ebene_2" data-name="Ebene 2"><g id="Ebene_1-2" data-name="Ebene 1"><path class="inner-head" fill="currentColor" d="M50.48,87.58c1,32.76,48.54,32.23,48.83-.53L50.49,86.8Z"/><path d="M135.07.26c-5.22.86-9.59,3.68-11.23,7.26L122.56,8a70.5,70.5,0,0,0-17.79,9.51C87.69,3.81,62.07,3.83,45,17.5A68.13,68.13,0,0,0,26.11,7.69C22.54-.94,2.59-3.48,0,7.45-1,18.84,19.49,22.62,25.23,15a63.38,63.38,0,0,1,14.24,7.43A48.91,48.91,0,0,0,27.55,44c-3.25.5-6.76,1-9.9,1.45a54.6,54.6,0,0,1,.66,7.83c2,.11,3.6,1.85,4,6.24-16.1,14.14-9.84,38.87,4.58,52.23,11.52,11.22,30.91,17.85,48,18,17.07-.14,36.49-6.79,48-18,14.42-13.36,20.7-38,4.6-52.23.4-4.39,2-6.13,4-6.24a54.75,54.75,0,0,1,.66-7.83c-3.13-.4-6.66-1-9.9-1.45a48.9,48.9,0,0,0-12-21.52,62,62,0,0,1,14.44-7.56c4.66,6.25,19.37,4.67,23.69-2C153.74,5,144.74-1.39,135.07.26Zm-7.74,69.47c13.45,30.58-24.64,54-52.42,53.2-25.47-.2-55.52-15.54-55.34-43.19A19.23,19.23,0,0,1,23.7,67.92c3.38,9.28,11.54,14.42,22.2,14.39A24.64,24.64,0,0,0,68.72,68.48C71.36,65,70.92,56.9,74.9,56.61,78.88,57,78.4,65,81,68.44a24.75,24.75,0,0,0,22.82,13.87c10.7,0,18.84-5.09,22.25-14.39C126.54,68.51,127,69.11,127.33,69.73ZM106.58,42.45c-4.69,0-11.57.23-17.22,2.21-6.16,1.54-7.58,4.23-14.49,4-6.82.28-8.34-2.44-14.4-4C51,41.85,44,42.19,34.88,43a42.32,42.32,0,0,1,9.56-15.91,9.88,9.88,0,0,1,.71-.74l.22-.2C66.25,4.06,106.24,14.07,114.89,43A75.33,75.33,0,0,0,106.58,42.45ZM32.85,50.72h0c2.81-1.75,6.64-2,10.35-2,21.44,0,21.44,6.51,21.44,10a16.32,16.32,0,0,1-5.07,12c-9.89,10.06-30,5.15-30.81-8.35C28.07,57.63,29.52,52.5,32.85,50.72ZM121,62.37c-.44,3.2-3,13.67-17.2,13.67-10.31.46-20.13-8.83-18.57-19.41l0-.15s0,0,0,0l.12-.53c-.29-6.44,22.83-9.9,31.55-5.25C120.27,52.53,121.71,57.65,121,62.37Z"/><path d="M49.51,70c10-.18,10-15.11,0-15.29C39.46,54.92,39.46,69.85,49.51,70Z"/><path d="M100.28,54.74c-10,.18-10,15.11,0,15.29C110.32,69.85,110.32,54.92,100.28,54.74Z"/></g></g></svg>
